# 3ds Max Wavefront OBJ Exporter v0.97b - (c)2007 guruware
# File Created: 02.03.2022 17:50:01

#
# object Line022
#

v  0.001267 0.010912 0.198880
v  -0.013107 0.020977 0.260445
v  -0.024579 0.004594 0.260445
v  -0.010205 -0.005471 0.198880
v  -0.037535 0.038081 0.317093
v  -0.049006 0.021698 0.317093
v  -0.070973 0.061495 0.366407
v  -0.082445 0.045112 0.366407
v  -0.111997 0.090220 0.406284
v  -0.123468 0.073837 0.406284
v  -0.158855 0.123031 0.435023
v  -0.170327 0.106647 0.435023
v  -0.158855 0.123030 -0.276877
v  -0.170327 0.106647 -0.276877
v  0.004975 0.008315 -0.276877
v  -0.006496 -0.008068 -0.276877
v  0.004975 0.008315 0.135023
v  -0.006496 -0.008068 0.135023
# 18 vertices

vn 0.980721 0.149067 0.126355
vn 0.946927 0.172681 0.271128
vn 0.161602 -0.948881 0.271128
vn 0.195349 -0.972560 0.126355
vn 0.889485 0.212903 0.404338
vn 0.104159 -0.908659 0.404338
vn 0.810852 0.267961 0.520303
vn 0.025527 -0.853600 0.520303
vn 0.714383 0.335510 0.614076
vn -0.070942 -0.786052 0.614076
vn -0.037851 0.706156 0.707044
vn -0.676515 -0.205952 0.707044
vn -0.141783 0.804092 -0.577350
vn -0.804092 -0.141783 -0.577350
vn 0.804092 0.141783 -0.577350
vn 0.141783 -0.804092 -0.577350
vn 0.986313 0.162930 0.025298
vn 0.184128 -0.982577 0.025289
# 18 vertex normals

vt 0.996433 0.668291 -0.007093
vt 0.951861 0.754772 -0.007093
vt 0.951861 0.754772 0.992906
vt 0.996433 0.668291 0.992906
vt 0.876118 0.834344 -0.007093
vt 0.876118 0.834344 0.992906
vt 0.772433 0.903615 -0.007093
vt 0.772433 0.903615 0.992906
vt 0.645229 0.959630 -0.007093
vt 0.645229 0.959630 0.992906
vt 0.499932 1.000000 -0.007093
vt 0.499932 1.000000 0.992906
vt 0.499931 0.000000 -0.007093
vt 0.499931 0.000000 0.992907
vt 1.007931 -0.000000 -0.007093
vt 1.007931 -0.000000 0.992907
vt 1.007932 0.578592 -0.007093
vt 1.007932 0.578592 0.992906
# 18 texture coords

o Line022
g Line022
s 1
f 1/1/1 2/2/2 3/3/3 4/4/4 
s 3
f 2/2/2 5/5/5 6/6/6 3/3/3 
s 2
f 5/5/5 7/7/7 8/8/8 6/6/6 
f 7/7/7 9/9/9 10/10/10 8/8/8 
f 9/9/9 11/11/11 12/12/12 10/10/10 
s 4
f 11/11/11 13/13/13 14/14/14 12/12/12 
s 2
f 13/13/13 15/15/15 16/16/16 14/14/14 
s 4
f 15/15/15 17/17/17 18/18/18 16/16/16 
s 3
f 17/17/17 1/1/1 4/4/4 18/18/18 
s 16
f 9/9/9 7/7/7 13/13/13 11/11/11 
f 5/5/5 2/2/2 13/13/13 7/7/7 
f 1/1/1 17/17/17 13/13/13 2/2/2 
f 15/15/15 13/13/13 17/17/17 
f 10/10/10 12/12/12 14/14/14 8/8/8 
f 6/6/6 8/8/8 14/14/14 3/3/3 
f 4/4/4 3/3/3 14/14/14 18/18/18 
f 16/16/16 18/18/18 14/14/14 
# 15 polygons - 2 triangles

