# 3ds Max Wavefront OBJ Exporter v0.97b - (c)2007 guruware
# File Created: 02.03.2022 17:40:41

#
# object EWL006
#

v  -0.196924 -0.212598 0.000000
v  -0.196924 0.212598 0.000000
v  0.228273 0.212598 0.000000
v  0.228273 -0.212598 0.000000
v  -0.196924 -0.212598 0.019685
v  0.228273 -0.212598 0.019685
v  0.228273 0.212598 0.019685
v  -0.196924 0.212598 0.019685
# 8 vertices

vn -0.577350 -0.577350 -0.577350
vn -0.577350 0.577350 -0.577350
vn 0.577350 0.577350 -0.577350
vn 0.577350 -0.577350 -0.577350
vn -0.577350 -0.577350 0.577350
vn 0.577350 -0.577350 0.577350
vn 0.577350 0.577350 0.577350
vn -0.577350 0.577350 0.577350
# 8 vertex normals

vt -0.000210 0.000286 0.000000
vt -0.000210 1.080286 0.000000
vt 1.079790 1.080286 0.000000
vt 1.079790 0.000286 0.000000
vt -0.000210 0.000286 1.000000
vt 1.079790 0.000286 1.000000
vt 1.079790 1.080286 1.000000
vt -0.000210 1.080286 1.000000
# 8 texture coords

o EWL006
g EWL006
s 2
f 1/1/1 2/2/2 3/3/3 4/4/4 
s 4
f 5/5/5 6/6/6 7/7/7 8/8/8 
s 8
f 1/1/1 4/4/4 6/6/6 5/5/5 
s 16
f 4/4/4 3/3/3 7/7/7 6/6/6 
s 32
f 3/3/3 2/2/2 8/8/8 7/7/7 
s 64
f 2/2/2 1/1/1 5/5/5 8/8/8 
# 6 polygons

