# 3ds Max Wavefront OBJ Exporter v0.97b - (c)2007 guruware
# File Created: 02.03.2022 17:51:16

mtllib windowshutter.mtl

#
# object Window_Shutter_L012
#

v  -0.005587 -0.101488 1.451299
v  -0.005587 -0.101488 -1.280350
v  -0.005587 0.098512 -1.280350
v  -0.005587 0.098512 1.451299
v  -1.012795 -0.101488 -1.280350
v  -1.012795 0.098512 -1.280350
v  -1.005587 -0.101487 3.371920
v  -1.005587 0.098513 3.371920
v  -0.453920 -0.101487 2.909414
v  -0.453920 0.098513 2.909414
v  -0.146872 -0.101487 2.217764
v  -0.146872 0.098512 2.217764
# 12 vertices

vn 0.723469 -0.687183 0.066123
vn 0.577350 -0.577351 -0.577350
vn 0.577350 0.577350 -0.577350
vn 0.723469 0.687183 0.066122
vn -0.577838 -0.577269 -0.576943
vn -0.577838 0.577269 -0.576944
vn -0.352721 -0.549312 0.757525
vn -0.352720 0.549313 0.757525
vn 0.600372 -0.659662 0.452105
vn 0.600373 0.659662 0.452104
vn 0.699039 -0.681595 0.216271
vn 0.699039 0.681595 0.216271
# 12 vertex normals

vt -0.010125 0.587165 0.040788
vt -0.010125 0.000000 0.040789
vt -0.010125 0.000000 1.040787
vt -0.010125 0.587165 1.040786
vt 0.501536 0.000000 0.040790
vt 0.501536 0.000000 1.040788
vt 0.497876 1.000000 0.040788
vt 0.497876 1.000000 1.040787
vt 0.217629 0.900585 0.040788
vt 0.217629 0.900585 1.040786
vt 0.061648 0.751916 0.040788
vt 0.061648 0.751916 1.040786
# 12 texture coords

o Window_Shutter_L012
g Window_Shutter_L012
usemtl 07___Default
s 1
f 1/1/1 2/2/2 3/3/3 4/4/4 
s 4
f 2/2/2 5/5/5 6/6/6 3/3/3 
s 2
f 5/5/5 7/7/7 8/8/8 6/6/6 
s 4
f 7/7/7 9/9/9 10/10/10 8/8/8 
f 9/9/9 11/11/11 12/12/12 10/10/10 
f 11/11/11 1/1/1 4/4/4 12/12/12 
s 16
f 5/5/5 11/11/11 9/9/9 7/7/7 
f 5/5/5 2/2/2 1/1/1 11/11/11 
f 6/6/6 8/8/8 10/10/10 12/12/12 
f 6/6/6 12/12/12 4/4/4 3/3/3 
# 10 polygons

