# 3ds Max Wavefront OBJ Exporter v0.97b - (c)2007 guruware
# File Created: 02.03.2022 17:49:23

#
# object Window_Base012
#

v  0.000000 -0.115280 -0.018083
v  0.000000 -0.115280 0.018083
v  -0.000000 0.115280 0.018083
v  -0.000000 0.115280 -0.018083
v  0.134720 -0.115280 -0.018083
v  0.134720 0.115280 -0.018083
v  0.134720 0.115280 0.018083
v  0.134720 -0.115280 0.018083
# 8 vertices

vn -0.577350 -0.577350 -0.577350
vn -0.577350 -0.577350 0.577350
vn -0.577350 0.577350 0.577350
vn -0.577350 0.577350 -0.577350
vn 0.577350 -0.577350 -0.577350
vn 0.577350 0.577350 -0.577350
vn 0.577350 0.577350 0.577350
vn 0.577350 -0.577350 0.577350
# 8 vertex normals

vt 1.085624 0.408138 0.157812
vt 1.085624 0.591863 0.157812
vt -0.085624 0.591862 0.157812
vt -0.085624 0.408137 0.157812
vt -0.085624 0.408138 0.842188
vt 1.085624 0.408137 0.842188
vt 1.085624 0.591862 0.842188
vt -0.085624 0.591863 0.842188
vt -0.085624 0.157812 0.408138
vt 1.085624 0.157812 0.408137
vt 1.085624 0.842188 0.408137
vt -0.085624 0.842188 0.408138
vt 0.408137 0.157812 1.085624
vt 0.591862 0.157812 1.085624
vt 0.591862 0.842188 1.085624
vt 0.408137 0.842188 1.085624
vt -0.085624 0.157812 0.591862
vt 1.085624 0.157812 0.591863
vt 1.085624 0.842188 0.591863
vt -0.085624 0.842188 0.591862
vt 0.408137 0.157812 -0.085624
vt 0.591862 0.157812 -0.085624
vt 0.591862 0.842188 -0.085624
vt 0.408137 0.842188 -0.085624
# 24 texture coords

o Window_Base012
g Window_Base012
s 2
f 1/1/1 2/2/2 3/3/3 4/4/4 
s 4
f 5/5/5 6/6/6 7/7/7 8/8/8 
s 8
f 1/9/1 4/10/4 6/11/6 5/12/5 
s 16
f 4/13/4 3/14/3 7/15/7 6/16/6 
s 32
f 3/17/3 2/18/2 8/19/8 7/20/7 
s 64
f 2/21/2 1/22/1 5/23/5 8/24/8 
# 6 polygons

