# Blender v2.82 (sub 7) OBJ File: ''
# www.blender.org
mtllib doorbars.mtl
o Box098_Mesh.010
v -0.000000 0.020975 -0.021528
v -0.000000 0.058649 -0.021528
v 0.000000 0.020975 0.021528
v 0.000000 0.058649 0.021528
v 0.500968 0.020975 -0.021529
v 0.500968 0.058650 -0.021529
v 0.500968 0.020975 0.021528
v 0.500968 0.058650 0.021528
v 0.405907 0.025939 -0.000353
v 0.405907 0.055939 -0.000353
v 0.375907 0.025939 -0.000353
v 0.375907 0.055939 -0.000353
v 0.405907 0.025939 0.556100
v 0.405907 0.055939 0.556100
v 0.375907 0.025939 0.556100
v 0.375907 0.055939 0.556100
v 0.200997 0.025939 -0.000353
v 0.200997 0.055939 -0.000353
v 0.170997 0.025939 -0.000353
v 0.170997 0.055939 -0.000353
v 0.200997 0.025939 0.411534
v 0.200997 0.055939 0.411534
v 0.170997 0.025939 0.411534
v 0.170997 0.055939 0.411534
vt 0.532152 0.000000
vt 0.532152 0.074541
vt 0.467848 0.074541
vt 0.467848 0.000000
vt 0.467848 0.000000
vt 0.532152 0.000000
vt 0.532152 0.074541
vt 0.467848 0.074541
vt 0.467848 0.000000
vt 0.532152 0.000000
vt 0.532152 1.000000
vt 0.467848 1.000000
vt 0.000000 0.000000
vt 0.074541 0.000000
vt 0.074541 1.000000
vt 0.000000 1.000000
vt 0.467848 0.000000
vt 0.532152 0.000000
vt 0.532152 1.000000
vt 0.467848 1.000000
vt 0.925459 0.000000
vt 1.000000 0.000000
vt 1.000000 1.000000
vt 0.925459 1.000000
vt 0.476322 0.810244
vt 0.476322 0.750360
vt 0.527526 0.750360
vt 0.527526 0.810244
vt 0.523678 0.810244
vt 0.472474 0.810244
vt 0.472474 0.750360
vt 0.523678 0.750360
vt 0.476322 0.036660
vt 0.527526 0.036660
vt 0.527526 1.000000
vt 0.476322 1.000000
vt 0.036660 0.810244
vt 0.036660 0.750360
vt 1.000000 0.750360
vt 1.000000 0.810244
vt 0.472474 0.036660
vt 0.523678 0.036660
vt 0.523678 1.000000
vt 0.472474 1.000000
vt 0.963340 0.750360
vt 0.963340 0.810244
vt 0.000000 0.810244
vt 0.000000 0.750360
vt 0.476322 0.401218
vt 0.476322 0.341334
vt 0.527526 0.341334
vt 0.527526 0.401218
vt 0.523678 0.401217
vt 0.472474 0.401217
vt 0.472474 0.341333
vt 0.523678 0.341333
vt 0.476322 0.036660
vt 0.527526 0.036660
vt 0.527526 0.749726
vt 0.476322 0.749726
vt 0.036660 0.401218
vt 0.036660 0.341334
vt 0.749726 0.341333
vt 0.749726 0.401217
vt 0.472474 0.036660
vt 0.523678 0.036660
vt 0.523678 0.749726
vt 0.472474 0.749726
vt 0.963340 0.341334
vt 0.963340 0.401218
vt 0.250274 0.401217
vt 0.250274 0.341333
vn -1.0000 -0.0000 0.0000
vn 1.0000 0.0000 0.0000
vn -0.0000 -0.7071 -0.7071
vn -0.0000 0.7071 -0.7071
vn 0.0000 0.7071 0.7071
vn 0.0000 -0.7071 0.7071
vn 0.0000 0.0000 -1.0000
vn 0.0000 0.0000 1.0000
vn 0.7071 -0.7071 0.0000
vn 0.7071 0.7071 0.0000
vn -0.7071 0.7071 0.0000
vn -0.7071 -0.7071 0.0000
usemtl 09_-_Default.001
s 1
f 1/1/1 3/2/1 4/3/1 2/4/1
f 5/5/2 6/6/2 8/7/2 7/8/2
f 1/9/3 2/10/4 6/11/4 5/12/3
f 2/13/4 4/14/5 8/15/5 6/16/4
f 4/17/5 3/18/6 7/19/6 8/20/5
f 3/21/6 1/22/3 5/23/3 7/24/6
f 9/25/7 11/26/7 12/27/7 10/28/7
f 13/29/8 14/30/8 16/31/8 15/32/8
f 9/33/9 10/34/10 14/35/10 13/36/9
f 10/37/10 12/38/11 16/39/11 14/40/10
f 12/41/11 11/42/12 15/43/12 16/44/11
f 11/45/12 9/46/9 13/47/9 15/48/12
f 17/49/7 19/50/7 20/51/7 18/52/7
f 21/53/8 22/54/8 24/55/8 23/56/8
f 17/57/9 18/58/10 22/59/10 21/60/9
f 18/61/10 20/62/11 24/63/11 22/64/10
f 20/65/11 19/66/12 23/67/12 24/68/11
f 19/69/12 17/70/9 21/71/9 23/72/12
