# Blender v2.82 (sub 7) OBJ File: ''
# www.blender.org
mtllib door.mtl
o Line022_Mesh.019
v -0.024549 0.026551 0.505155
v -0.024549 -0.018020 0.661531
v -0.024549 -0.093764 0.805416
v -0.024549 -0.197449 0.930674
v -0.024549 -0.324653 1.031961
v -0.024549 -0.469950 1.104959
v -0.024550 -0.469950 -0.703267
v -0.024550 0.038050 -0.703267
v -0.024549 0.038050 0.342958
v 0.026251 0.026551 0.505155
v 0.026251 -0.018020 0.661531
v 0.026251 -0.093764 0.805416
v 0.026251 -0.197449 0.930674
v 0.026251 -0.324653 1.031961
v 0.026251 -0.469950 1.104959
v 0.026250 -0.469950 -0.703267
v 0.026250 0.038050 -0.703267
v 0.026251 0.038050 0.342958
vt 0.996433 0.668291
vt 0.951861 0.754772
vt 0.951861 0.754772
vt 0.996433 0.668291
vt 0.876118 0.834344
vt 0.876118 0.834344
vt 0.772433 0.903615
vt 0.772433 0.903615
vt 0.645229 0.959630
vt 0.645229 0.959630
vt 0.499932 1.000000
vt 0.499932 1.000000
vt 0.499931 0.000000
vt 0.499931 0.000000
vt 1.007931 -0.000000
vt 1.007931 -0.000000
vt 1.007932 0.578592
vt 1.007932 0.578592
vn 0.0000 0.9849 0.1733
vn 0.0000 0.9283 0.3720
vn 0.0000 0.8321 0.5547
vn 0.0000 0.7004 0.7138
vn 0.0000 0.5388 0.8424
vn 0.0000 0.4489 0.8936
vn 0.0000 -1.0000 -0.0000
vn 0.0000 0.0000 -1.0000
vn 0.0000 1.0000 0.0000
vn 0.0000 0.9975 0.0707
vn -1.0000 0.0000 0.0000
vn 1.0000 -0.0000 -0.0000
usemtl 07_-_Default.001
s 1
f 1/1/1 2/2/2 11/3/2
f 1/1/1 11/3/2 10/4/1
f 2/2/2 3/5/3 12/6/3
f 2/2/2 12/6/3 11/3/2
f 3/5/3 4/7/4 13/8/4
f 3/5/3 13/8/4 12/6/3
f 4/7/4 5/9/5 14/10/5
f 4/7/4 14/10/5 13/8/4
f 5/9/5 6/11/6 15/12/6
f 5/9/5 15/12/6 14/10/5
f 6/11/7 7/13/7 16/14/7
f 6/11/7 16/14/7 15/12/7
f 7/13/8 8/15/8 17/16/8
f 7/13/8 17/16/8 16/14/8
f 8/15/9 9/17/9 18/18/9
f 8/15/9 18/18/9 17/16/9
f 9/17/10 1/1/1 10/4/1
f 9/17/10 10/4/1 18/18/10
f 5/9/11 7/13/11 6/11/11
f 4/7/11 7/13/11 5/9/11
f 3/5/11 7/13/11 4/7/11
f 2/2/11 7/13/11 3/5/11
f 1/1/11 7/13/11 2/2/11
f 9/17/11 7/13/11 1/1/11
f 8/15/11 7/13/11 9/17/11
f 14/10/12 15/12/12 16/14/12
f 13/8/12 14/10/12 16/14/12
f 12/6/12 13/8/12 16/14/12
f 11/3/12 12/6/12 16/14/12
f 10/4/12 11/3/12 16/14/12
f 18/18/12 10/4/12 16/14/12
f 17/16/12 18/18/12 16/14/12
