# Blender v2.82 (sub 7) OBJ File: ''
# www.blender.org
mtllib lamp.mtl
o Box096_Mesh.009
v 0.078083 0.039812 -0.541989
v -0.078083 0.039812 -0.541989
v 0.078083 0.039812 0.541989
v -0.078083 0.039812 0.541989
v 0.078083 0.076557 -0.541989
v -0.078083 0.076557 -0.541989
v 0.078083 0.076557 0.541989
v -0.078083 0.076557 0.541989
v 0.041934 0.076554 0.212094
v -0.042509 0.076554 0.212094
v 0.041934 0.076554 0.319273
v -0.042509 0.076554 0.319273
v 0.041934 0.615694 0.212094
v -0.042509 0.615694 0.212094
v 0.041934 0.615694 0.319273
v -0.042509 0.615694 0.319273
v 0.022966 0.028479 -0.261725
v -0.022966 0.028479 -0.261725
v 0.022966 0.392041 0.257496
v -0.022966 0.392041 0.257496
v 0.022966 0.066104 -0.288070
v -0.022966 0.066104 -0.288070
v 0.022966 0.429666 0.231151
v -0.022966 0.429666 0.231151
v 0.028986 0.502648 0.016908
v 0.028986 0.557861 0.016908
v -0.019731 0.502648 0.016908
v -0.019731 0.557861 0.016908
v 0.028986 0.502648 0.260495
v 0.028986 0.557861 0.260495
v -0.019731 0.502648 0.260495
v -0.019731 0.557861 0.260495
v 0.090762 0.450682 -0.273476
v 0.090762 0.619570 -0.273476
v -0.078125 0.450683 -0.273476
v -0.078125 0.619570 -0.273476
v 0.090762 0.450682 -0.013650
v 0.090762 0.619570 -0.013650
v -0.078125 0.450682 -0.013650
v -0.078125 0.619570 -0.013650
v 0.107002 0.427948 -0.012325
v 0.107002 0.639057 -0.012325
v -0.104108 0.427948 -0.012325
v -0.104108 0.639057 -0.012325
v 0.107002 0.427948 0.016906
v 0.107002 0.639057 0.016906
v -0.104108 0.427948 0.016906
v -0.104108 0.639057 0.016906
v 0.107002 0.427948 -0.302709
v 0.107002 0.639057 -0.302709
v -0.104108 0.427948 -0.302709
v -0.104108 0.639057 -0.302709
v 0.107002 0.427948 -0.273478
v 0.107002 0.639057 -0.273478
v -0.104108 0.427948 -0.273478
v -0.104108 0.639057 -0.273478
vt 1.000000 0.000000
vt 1.000000 1.000000
vt 0.000000 1.000000
vt 0.000000 0.000000
vt 0.302731 0.008037
vt 0.421329 0.008037
vt 0.421329 0.557960
vt 0.302731 0.557960
vt 0.000000 0.000000
vt 0.428830 0.000000
vt 0.428830 0.049211
vt 0.000000 0.049211
vt 0.027862 0.177620
vt 0.052998 0.177620
vt 0.052998 0.570406
vt 0.027862 0.570406
vt 0.000000 0.000000
vt 0.180679 0.000000
vt 0.180679 0.027458
vt 0.000000 0.027458
vt 0.027862 0.177620
vt 0.087521 0.177620
vt 0.087521 0.881589
vt 0.027862 0.881589
vt 1.000000 0.000000
vt 1.000000 1.000000
vt 0.000000 1.000000
vt 0.000000 0.000000
vt 0.027862 0.041793
vt 0.198969 0.041793
vt 0.198969 0.226831
vt 0.027862 0.226831
vt 0.190654 0.890891
vt 0.029232 0.890891
vt 0.029233 0.230654
vt 0.190654 0.230654
vt 0.190654 0.890891
vt 0.122642 0.890891
vt 0.122642 0.522505
vt 0.190654 0.522505
vt 0.190654 0.890891
vt 0.122642 0.890891
vt 0.122642 0.522505
vt 0.190654 0.522505
vt 0.190654 0.890891
vt 0.029232 0.890891
vt 0.029233 0.230654
vt 0.190654 0.230654
vt 0.080103 0.435246
vt 0.134766 0.435246
vt 0.134766 0.703968
vt 0.080103 0.703967
vt 0.080103 0.703967
vt 0.080103 0.066172
vt 0.178073 0.066172
vt 0.178073 0.703968
vt 0.000000 0.000000
vt 1.000000 0.000000
vt 1.000000 1.000000
vt 0.000000 1.000000
vt 0.080103 0.435246
vt 0.134766 0.435246
vt 0.134766 0.703968
vt 0.000000 0.000000
vt 1.000000 0.000000
vt 1.000000 1.000000
vt 0.000000 1.000000
vt 0.080103 0.703967
vt 0.080103 0.066172
vt 0.178073 0.066172
vt 1.000000 0.000000
vt 1.000000 1.000000
vt 0.000000 1.000000
vt 0.000000 0.000000
vt 0.000000 0.000000
vt 1.000000 0.000000
vt 1.000000 1.000000
vt 0.000000 1.000000
vt 0.912479 0.000000
vt 1.000000 0.000000
vt 1.000000 0.317382
vt 0.912479 0.317382
vt 0.912479 0.000000
vt 1.000000 0.000000
vt 1.000000 0.317382
vt 0.912479 0.317382
vt 0.884617 0.000000
vt 1.000000 0.000000
vt 1.000000 0.463658
vt 0.884617 0.463658
vt 0.884617 0.000000
vt 1.000000 0.463658
vt 0.884617 0.463658
vt 1.000000 0.000000
vt 1.000000 1.000000
vt 0.000000 1.000000
vt 0.000000 0.000000
vt 0.000000 0.000000
vt 1.000000 0.000000
vt 1.000000 1.000000
vt 0.000000 1.000000
vt 0.694315 0.678691
vt 0.875968 0.678691
vt 0.875968 0.899944
vt 0.694315 0.899944
vt 0.693343 0.679037
vt 0.875962 0.679037
vt 0.875962 0.900073
vt 0.693343 0.900073
vt 0.694315 0.678691
vt 0.875968 0.678691
vt 0.875968 0.899944
vt 0.694315 0.899944
vt 0.694315 0.678691
vt 0.875968 0.678691
vt 0.875968 0.899944
vt 0.694315 0.899944
vt 0.979103 0.024379
vt 0.979103 0.481071
vt 0.508480 0.481071
vt 0.508480 0.024379
vt 0.508480 0.024379
vt 0.979103 0.024379
vt 0.979103 0.481071
vt 0.508480 0.481071
vt 0.647790 0.000000
vt 1.000000 0.000000
vt 1.000000 0.045728
vt 0.647790 0.045728
vt 0.647790 0.000000
vt 1.000000 0.000000
vt 1.000000 0.045728
vt 0.647790 0.045728
vt 0.647790 0.000000
vt 1.000000 0.000000
vt 1.000000 0.045728
vt 0.647790 0.045728
vt 0.647790 0.000000
vt 1.000000 0.000000
vt 1.000000 0.045728
vt 0.647790 0.045728
vt 0.979103 0.024379
vt 0.979103 0.481071
vt 0.508480 0.481071
vt 0.508480 0.024379
vt 0.508480 0.024379
vt 0.979103 0.024379
vt 0.979103 0.481071
vt 0.508480 0.481071
vt 0.647790 0.000000
vt 1.000000 0.000000
vt 1.000000 0.045728
vt 0.647790 0.045728
vt 0.647790 0.000000
vt 1.000000 0.000000
vt 1.000000 0.045728
vt 0.647790 0.045728
vt 0.647790 0.000000
vt 1.000000 0.000000
vt 1.000000 0.045728
vt 0.647790 0.045728
vt 0.647790 0.000000
vt 1.000000 0.000000
vt 1.000000 0.045728
vt 0.647790 0.045728
vn -0.0000 -1.0000 -0.0000
vn 0.0000 1.0000 0.0000
vn -0.0000 0.0000 -1.0000
vn -1.0000 0.0000 0.0000
vn -0.0000 0.0000 1.0000
vn 1.0000 0.0000 0.0000
vn -0.0000 -0.8192 0.5736
vn 0.0000 0.8192 -0.5736
vn -0.0000 -0.5736 -0.8192
vn 0.0000 0.5736 0.8192
usemtl 08_-_Default
s 1
f 1/1/1 3/2/1 4/3/1 2/4/1
f 5/5/2 6/6/2 8/7/2 7/8/2
f 1/9/3 2/10/3 6/11/3 5/12/3
f 2/13/4 4/14/4 8/15/4 6/16/4
f 4/17/5 3/18/5 7/19/5 8/20/5
f 3/21/6 1/22/6 5/23/6 7/24/6
f 9/25/1 11/26/1 12/27/1 10/28/1
f 13/29/2 14/30/2 16/31/2 15/32/2
f 9/33/3 10/34/3 14/35/3 13/36/3
f 10/37/4 12/38/4 16/39/4 14/40/4
f 12/41/5 11/42/5 15/43/5 16/44/5
f 11/45/6 9/46/6 13/47/6 15/48/6
f 17/49/7 19/50/7 20/51/7 18/52/7
f 21/53/8 22/54/8 24/55/8 23/56/8
f 17/57/9 18/58/9 22/59/9 21/60/9
f 18/52/4 20/61/4 24/62/4 22/63/4
f 20/64/10 19/65/10 23/66/10 24/67/10
f 19/68/6 17/69/6 21/70/6 23/56/6
f 25/71/3 27/72/3 28/73/3 26/74/3
f 29/75/5 30/76/5 32/77/5 31/78/5
f 25/79/6 26/80/6 30/81/6 29/82/6
f 26/83/2 28/84/2 32/85/2 30/86/2
f 28/87/4 27/88/4 31/89/4 32/90/4
f 27/91/1 25/71/1 29/92/1 31/93/1
f 33/94/3 35/95/3 36/96/3 34/97/3
f 37/98/5 38/99/5 40/100/5 39/101/5
f 33/102/6 34/103/6 38/104/6 37/105/6
f 34/106/2 36/107/2 40/108/2 38/109/2
f 36/110/4 35/111/4 39/112/4 40/113/4
f 35/114/1 33/115/1 37/116/1 39/117/1
f 41/118/3 43/119/3 44/120/3 42/121/3
f 45/122/5 46/123/5 48/124/5 47/125/5
f 41/126/6 42/127/6 46/128/6 45/129/6
f 42/130/2 44/131/2 48/132/2 46/133/2
f 44/134/4 43/135/4 47/136/4 48/137/4
f 43/138/1 41/139/1 45/140/1 47/141/1
f 49/142/3 51/143/3 52/144/3 50/145/3
f 53/146/5 54/147/5 56/148/5 55/149/5
f 49/150/6 50/151/6 54/152/6 53/153/6
f 50/154/2 52/155/2 56/156/2 54/157/2
f 52/158/4 51/159/4 55/160/4 56/161/4
f 51/162/1 49/163/1 53/164/1 55/165/1
