# Blender v2.82 (sub 7) OBJ File: ''
# www.blender.org
mtllib walldoorL.mtl
o Box096_Mesh.003
v 0.500641 0.389814 0.000001
v 0.500641 0.539814 0.000001
v -0.499691 0.539814 0.000001
v -0.499691 0.389814 0.000001
v -0.499691 0.389814 0.000005
v 0.000472 0.389814 0.000005
v 0.000472 0.389814 1.270005
v -0.011027 0.389814 1.432201
v -0.055598 0.389814 1.588577
v -0.131342 0.389814 1.732462
v -0.235027 0.389814 1.857720
v -0.362231 0.389814 1.959007
v -0.499691 0.389814 2.028068
v -0.499691 0.389814 2.400001
v 0.500641 0.389814 2.400001
v 0.500641 0.539814 2.400001
v -0.499691 0.539814 2.400001
v -0.499691 0.539814 2.028068
v -0.362231 0.539814 1.959007
v -0.235027 0.539814 1.857720
v -0.131342 0.539814 1.732462
v -0.055598 0.539814 1.588577
v -0.011027 0.539814 1.432201
v 0.000472 0.539814 1.270005
v 0.000472 0.539814 0.000005
v -0.499691 0.539814 0.000005
vt -0.000744 1.150000
vt -0.000744 0.850000
vt 0.999588 0.850000
vt 0.999588 1.150000
vt 0.000412 2.000000
vt 0.000412 1.690056
vt 0.137873 1.632506
vt 0.265077 1.548099
vt 0.368761 1.443718
vt 1.000744 2.000000
vt 0.444505 1.323814
vt 0.489077 1.193501
vt 0.500575 1.058337
vt 0.500575 0.000004
vt 1.000744 0.000000
vt 0.000412 0.000004
vt 0.000412 0.000000
vt 0.425000 0.000000
vt 0.575000 0.000000
vt 0.575000 2.000000
vt 0.425000 2.000000
vt 0.999588 0.000000
vt 0.999588 0.000004
vt 0.499425 0.000004
vt 0.999588 1.690056
vt 0.999588 2.000000
vt -0.000744 2.000000
vt 0.862127 1.632506
vt 0.734923 1.548099
vt 0.631239 1.443718
vt 0.555495 1.323814
vt -0.000744 0.000000
vt 0.510923 1.193501
vt 0.499425 1.058337
vt 0.425000 0.000000
vt 0.575000 0.000000
vt 0.575000 0.000004
vt 0.425000 0.000004
vt 0.425000 2.000000
vt 0.425000 1.690056
vt 0.575000 1.690056
vt 0.575000 2.000000
vt 0.000412 0.850000
vt 1.000744 0.850000
vt 1.000744 1.150000
vt 0.000412 1.150000
vt 0.575000 1.193501
vt 0.575000 1.323814
vt 0.425000 1.323814
vt 0.425000 1.193501
vt 0.575000 1.443718
vt 0.425000 1.443718
vt 0.575000 1.058337
vt 0.425000 1.058337
vt 0.575000 1.548099
vt 0.425000 1.548099
vt 0.575000 0.000004
vt 0.425000 0.000004
vt 0.575000 1.632506
vt 0.425000 1.632506
vt 0.000412 0.850000
vt 0.500575 0.850000
vt 0.500575 1.150000
vt 0.000412 1.150000
vn 0.0000 0.0000 -1.0000
vn 0.0000 -1.0000 0.0000
vn 0.0000 -1.0000 -0.0088
vn 1.0000 0.0000 0.0000
vn -0.0000 1.0000 0.0000
vn -0.0000 0.9999 -0.0162
vn -1.0000 -0.0000 0.0000
vn 0.0000 0.0000 1.0000
vn -0.9849 0.0000 -0.1733
vn -0.9283 0.0000 -0.3720
vn -0.8321 0.0000 -0.5547
vn -0.8320 0.0000 -0.5547
vn -0.9975 0.0000 -0.0707
vn -0.7004 -0.0000 -0.7138
vn -0.5388 -0.0000 -0.8424
vn -0.4489 -0.0000 -0.8936
usemtl 01_-_Default.003
s 1
f 2/1/1 1/2/1 4/3/1
f 4/3/1 3/4/1 2/1/1
f 14/5/2 13/6/2 12/7/2
f 14/5/2 12/7/2 11/8/2
f 14/5/2 11/8/2 10/9/2
f 15/10/2 14/5/2 10/9/2
f 15/10/2 10/9/2 9/11/2
f 15/10/2 9/11/2 8/12/2
f 15/10/2 8/12/2 7/13/2
f 15/10/2 7/13/2 6/14/3
f 1/15/2 15/10/2 6/14/3
f 1/15/2 6/14/3 5/16/2
f 1/15/2 5/16/2 4/17/2
f 1/18/4 2/19/4 16/20/4
f 16/20/4 15/21/4 1/18/4
f 3/22/5 26/23/5 25/24/6
f 18/25/5 17/26/5 16/27/5
f 19/28/5 18/25/5 16/27/5
f 20/29/5 19/28/5 16/27/5
f 21/30/5 20/29/5 16/27/5
f 22/31/5 21/30/5 16/27/5
f 22/31/5 16/27/5 2/32/5
f 23/33/5 22/31/5 2/32/5
f 24/34/5 23/33/5 2/32/5
f 25/24/6 24/34/5 2/32/5
f 3/22/5 25/24/6 2/32/5
f 3/35/7 4/36/7 5/37/7
f 5/37/7 26/38/7 3/35/7
f 17/39/7 18/40/7 13/41/7
f 13/41/7 14/42/7 17/39/7
f 14/43/8 15/44/8 16/45/8
f 16/45/8 17/46/8 14/43/8
f 8/47/9 9/48/10 22/49/10
f 22/49/10 23/50/9 8/47/9
f 9/48/10 10/51/11 21/52/12
f 21/52/12 22/49/10 9/48/10
f 7/53/13 8/47/9 23/50/9
f 23/50/9 24/54/13 7/53/13
f 10/51/11 11/55/14 20/56/14
f 20/56/14 21/52/12 10/51/11
f 6/57/7 7/53/7 24/54/7
f 24/54/7 25/58/7 6/57/7
f 11/55/14 12/59/15 19/60/15
f 19/60/15 20/56/14 11/55/14
f 5/61/8 6/62/8 25/63/8
f 25/63/8 26/64/8 5/61/8
f 18/40/16 19/60/15 12/59/15
f 12/59/15 13/41/16 18/40/16
