# Blender v2.82 (sub 7) OBJ File: ''
# www.blender.org
mtllib wallblank.mtl
o Box099_Mesh.018
v -0.500166 0.389813 0.000000
v 0.500166 0.389813 0.000000
v -0.500166 0.539813 0.000000
v 0.500166 0.539813 0.000000
v -0.500166 0.389813 2.400000
v 0.500166 0.389813 2.400000
v -0.500166 0.539813 2.400000
v 0.500166 0.539813 2.400000
vt 1.000000 0.850000
vt 1.000000 1.150000
vt 0.000000 1.150000
vt 0.000000 0.850000
vt 0.000000 0.850000
vt 1.000000 0.850000
vt 1.000000 1.150000
vt 0.000000 1.150000
vt 0.000000 0.000000
vt 1.000000 0.000000
vt 1.000000 2.000000
vt 0.000000 2.000000
vt 0.425000 0.000000
vt 0.575000 0.000000
vt 0.575000 2.000000
vt 0.425000 2.000000
vt 0.000000 0.000000
vt 1.000000 0.000000
vt 1.000000 2.000000
vt 0.000000 2.000000
vt 0.425000 0.000000
vt 0.575000 0.000000
vt 0.575000 2.000000
vt 0.425000 2.000000
vn 0.0000 0.0000 -1.0000
vn 0.0000 0.0000 1.0000
vn -0.0000 -1.0000 0.0000
vn 1.0000 0.0000 0.0000
vn 0.0000 1.0000 0.0000
vn -1.0000 0.0000 0.0000
usemtl 01_-_Default.006
s 1
f 1/1/1 3/2/1 4/3/1
f 4/3/1 2/4/1 1/1/1
f 5/5/2 6/6/2 8/7/2
f 8/7/2 7/8/2 5/5/2
f 1/9/3 2/10/3 6/11/3
f 6/11/3 5/12/3 1/9/3
f 2/13/4 4/14/4 8/15/4
f 8/15/4 6/16/4 2/13/4
f 4/17/5 3/18/5 7/19/5
f 7/19/5 8/20/5 4/17/5
f 3/21/6 1/22/6 5/23/6
f 5/23/6 7/24/6 3/21/6
