# Blender v2.82 (sub 7) OBJ File: ''
# www.blender.org
mtllib windowbars.mtl
o Window_grill015_Mesh.008
v -0.260189 0.406286 1.421870
v -0.260189 0.441040 1.421870
v -0.260189 0.406286 1.465514
v -0.260189 0.441040 1.465514
v 0.282257 0.406286 1.421870
v 0.282257 0.441040 1.421870
v 0.282257 0.406286 1.465514
v 0.282257 0.441040 1.465514
v -0.128078 0.417287 0.775898
v -0.128078 0.432789 0.775898
v -0.146450 0.417287 0.775898
v -0.146450 0.432789 0.775898
v -0.128078 0.417287 1.446072
v -0.128078 0.432789 1.446072
v -0.146450 0.417287 1.446072
v -0.146450 0.432789 1.446072
v 0.009186 0.417287 0.775898
v 0.009186 0.432789 0.775898
v -0.009186 0.417287 0.775898
v -0.009186 0.432789 0.775898
v 0.009186 0.417287 1.446072
v 0.009186 0.432789 1.446072
v -0.009186 0.417287 1.446072
v -0.009186 0.432789 1.446072
v 0.145894 0.417287 0.775898
v 0.145894 0.432789 0.775898
v 0.127521 0.417287 0.775898
v 0.127521 0.432789 0.775898
v 0.145894 0.417287 1.446072
v 0.145894 0.432789 1.446072
v 0.127522 0.417287 1.446072
v 0.127522 0.432789 1.446072
vt 0.534753 1.102328
vt 0.534753 1.189616
vt 0.465247 1.189616
vt 0.465247 1.102328
vt 0.465247 1.102328
vt 0.534753 1.102328
vt 0.534753 1.189616
vt 0.465247 1.189616
vt 0.465247 -0.042445
vt 0.534753 -0.042445
vt 0.534753 1.042445
vt 0.465247 1.042445
vt 1.102328 -0.042445
vt 1.189616 -0.042445
vt 1.189616 1.042445
vt 1.102328 1.042445
vt 0.465247 -0.042445
vt 0.534753 -0.042445
vt 0.534753 1.042445
vt 0.465247 1.042445
vt -0.189616 -0.042445
vt -0.102328 -0.042445
vt -0.102328 1.042445
vt -0.189616 1.042445
vt 0.487248 0.221777
vt 0.487248 0.185032
vt 0.518252 0.185032
vt 0.518252 0.221777
vt 0.512751 0.221777
vt 0.481748 0.221777
vt 0.481748 0.185032
vt 0.512751 0.185032
vt 0.487248 -0.189616
vt 0.518252 -0.189616
vt 0.518252 1.150732
vt 0.487249 1.150732
vt -0.189616 0.221777
vt -0.189616 0.185032
vt 1.150732 0.185032
vt 1.150732 0.221777
vt 0.481748 -0.189616
vt 0.512752 -0.189616
vt 0.512751 1.150732
vt 0.481748 1.150732
vt 1.189616 0.185032
vt 1.189616 0.221777
vt -0.150732 0.221777
vt -0.150732 0.185032
vt 0.487248 0.496305
vt 0.487248 0.459560
vt 0.518252 0.459560
vt 0.518252 0.496305
vt 0.512751 0.496304
vt 0.481748 0.496304
vt 0.481748 0.459559
vt 0.512751 0.459559
vt 0.487248 -0.189616
vt 0.518252 -0.189616
vt 0.518252 1.150732
vt 0.487249 1.150732
vt -0.189616 0.496305
vt -0.189616 0.459560
vt 1.150732 0.459559
vt 1.150732 0.496304
vt 0.481748 -0.189616
vt 0.512752 -0.189616
vt 0.512751 1.150732
vt 0.481748 1.150732
vt 1.189616 0.459560
vt 1.189616 0.496305
vt -0.150732 0.496304
vt -0.150732 0.459559
vt 0.487248 0.769720
vt 0.487248 0.732975
vt 0.518252 0.732975
vt 0.518252 0.769720
vt 0.512751 0.769720
vt 0.481748 0.769720
vt 0.481748 0.732975
vt 0.512751 0.732975
vt 0.487248 -0.189616
vt 0.518252 -0.189616
vt 0.518252 1.150732
vt 0.487249 1.150732
vt -0.189616 0.769720
vt -0.189616 0.732975
vt 1.150732 0.732975
vt 1.150732 0.769720
vt 0.481748 -0.189616
vt 0.512752 -0.189616
vt 0.512751 1.150732
vt 0.481748 1.150732
vt 1.189616 0.732975
vt 1.189616 0.769720
vt -0.150732 0.769720
vt -0.150732 0.732975
vn -1.0000 0.0000 0.0000
vn 1.0000 0.0000 0.0000
vn -0.0000 -0.7071 -0.7071
vn -0.0000 0.7071 -0.7071
vn 0.0000 0.7071 0.7071
vn 0.0000 -0.7071 0.7071
vn 0.0000 0.0000 -1.0000
vn 0.0000 0.0000 1.0000
vn 0.7071 -0.7071 -0.0000
vn 0.7071 0.7071 0.0000
vn -0.7071 0.7071 0.0000
vn -0.7071 -0.7071 -0.0000
usemtl 09_-_Default
s 1
f 1/1/1 3/2/1 4/3/1 2/4/1
f 5/5/2 6/6/2 8/7/2 7/8/2
f 1/9/3 2/10/4 6/11/4 5/12/3
f 2/13/4 4/14/5 8/15/5 6/16/4
f 4/17/5 3/18/6 7/19/6 8/20/5
f 3/21/6 1/22/3 5/23/3 7/24/6
f 9/25/7 11/26/7 12/27/7 10/28/7
f 13/29/8 14/30/8 16/31/8 15/32/8
f 9/33/9 10/34/10 14/35/10 13/36/9
f 10/37/10 12/38/11 16/39/11 14/40/10
f 12/41/11 11/42/12 15/43/12 16/44/11
f 11/45/12 9/46/9 13/47/9 15/48/12
f 17/49/7 19/50/7 20/51/7 18/52/7
f 21/53/8 22/54/8 24/55/8 23/56/8
f 17/57/9 18/58/10 22/59/10 21/60/9
f 18/61/10 20/62/11 24/63/11 22/64/10
f 20/65/11 19/66/12 23/67/12 24/68/11
f 19/69/12 17/70/9 21/71/9 23/72/12
f 25/73/7 27/74/7 28/75/7 26/76/7
f 29/77/8 30/78/8 32/79/8 31/80/8
f 25/81/9 26/82/10 30/83/10 29/84/9
f 26/85/10 28/86/11 32/87/11 30/88/10
f 28/89/11 27/90/12 31/91/12 32/92/11
f 27/93/12 25/94/9 29/95/9 31/96/12
