# Blender v2.82 (sub 7) OBJ File: ''
# www.blender.org
mtllib woodfloor.mtl
o FL003_Mesh.004
v 0.500000 -0.500000 0.000000
v 0.500000 0.500000 0.000000
v -0.500000 -0.500000 0.000000
v -0.500000 0.500000 0.000000
v 0.500000 -0.500000 0.050000
v 0.500000 0.500000 0.050000
v -0.500000 -0.500000 0.050000
v -0.500000 0.500000 0.050000
vt 1.000000 0.000000
vt 1.000000 1.000000
vt 0.000000 1.000000
vt 0.000000 0.000000
vt 0.000000 0.000000
vt 1.000000 0.000000
vt 1.000000 1.000000
vt 0.000000 1.000000
vt 0.000000 0.000000
vt 1.000000 0.000000
vt 1.000000 1.000000
vt 0.000000 1.000000
vt 1.000000 0.000000
vt 0.000000 1.000000
vt 0.000000 0.000000
vt 1.000000 0.000000
vt 1.000000 1.000000
vt 0.000000 1.000000
vt 0.000000 0.000000
vt 1.000000 1.000000
vn 0.0000 0.0000 -1.0000
vn 0.0000 0.0000 1.0000
vn 1.0000 0.0000 0.0000
vn 0.0000 1.0000 0.0000
vn -1.0000 0.0000 0.0000
vn 0.0000 -1.0000 0.0000
usemtl 02_-_Default
s 1
f 1/1/1 3/2/1 4/3/1 2/4/1
f 5/5/2 6/6/2 8/7/2 7/8/2
f 1/9/3 2/10/3 6/11/3 5/12/3
f 2/4/4 4/13/4 8/7/4 6/14/4
f 4/15/5 3/16/5 7/17/5 8/18/5
f 3/19/6 1/1/6 5/20/6 7/8/6
