# Blender v2.82 (sub 7) OBJ File: ''
# www.blender.org
mtllib woodfloorI.mtl
o EDR004_Mesh.006
v 0.500000 -0.500188 0.000000
v 0.500000 0.579812 0.000000
v -0.500000 -0.500188 0.000000
v -0.500000 0.579812 0.000000
v 0.500000 -0.500188 0.050000
v 0.500000 0.579812 0.050000
v -0.500000 -0.500188 0.050000
v -0.500000 0.579812 0.050000
vt -0.000285 0.000000
vt -0.000284 1.000000
vt 1.079715 1.000000
vt 1.079715 0.000000
vt -0.000285 0.000000
vt 1.079715 0.000000
vt 1.079715 1.000000
vt -0.000284 1.000000
vn 0.0000 0.0000 -1.0000
vn 0.0000 0.0000 1.0000
vn 1.0000 0.0000 0.0000
vn 0.0000 1.0000 0.0000
vn -1.0000 0.0000 0.0000
vn 0.0000 -1.0000 0.0000
usemtl 02_-_Default.001
s 1
f 1/1/1 3/2/1 4/3/1
f 4/3/1 2/4/1 1/1/1
f 5/5/2 6/6/2 8/7/2
f 8/7/2 7/8/2 5/5/2
f 1/1/3 2/4/3 6/6/3
f 6/6/3 5/5/3 1/1/3
f 2/4/4 4/3/4 8/7/4
f 8/7/4 6/6/4 2/4/4
f 4/3/5 3/2/5 7/8/5
f 7/8/5 8/7/5 4/3/5
f 3/2/6 1/1/6 5/5/6
f 5/5/6 7/8/6 3/2/6
