# Blender v2.82 (sub 7) OBJ File: 'd.blend'
# www.blender.org
mtllib testmodel1.mtl
o Cube
v 1.000000 -0.891222 -1.000000
v 1.000000 -1.000000 -1.000000
v 1.000000 -0.891222 1.000000
v 1.000000 -1.000000 1.000000
v -1.000000 -0.891222 -1.000000
v -1.000000 -1.000000 -1.000000
v -1.000000 -0.891222 1.000000
v -1.000000 -1.000000 1.000000
v 0.333333 -0.891222 1.000000
v -0.333333 -0.891222 1.000000
v 1.000000 -0.891222 -0.333333
v 1.000000 -0.891222 0.333333
v -1.000000 -0.891222 0.333333
v -1.000000 -0.891222 -0.333333
v -0.333333 -0.891222 -1.000000
v 0.333333 -0.891222 -1.000000
v 0.333333 -0.891222 -0.333333
v 0.333333 -0.891222 0.333333
v -0.333333 -0.891222 -0.333333
v -0.333333 -0.891222 0.333333
v -0.333333 -0.815998 1.000000
v -1.000000 -0.815998 1.000000
v -1.000000 -0.815998 -0.333333
v -1.000000 -0.815998 -1.000000
v -1.000000 -0.815998 0.333333
v -0.333333 -0.815998 -1.000000
v 0.333333 -0.815998 -1.000000
v 0.333333 -0.815998 -0.333333
v -0.333333 -0.815998 0.333333
v -0.333333 -0.815998 -0.333333
v 0.170490 -0.815998 -0.333333
v 0.116111 -0.815998 -1.000000
v -0.109439 -0.815998 -0.333333
v -0.059731 -0.815998 -1.000000
v -1.000000 -0.815998 -0.169690
v -0.333333 -0.815998 -0.104233
v -0.333333 -0.815998 0.154586
v -1.000000 -0.815998 0.150564
v -0.333333 -0.815998 0.560814
v -1.000000 -0.815998 0.518765
v -0.333333 -0.725129 1.000000
v -1.000000 -0.725129 1.000000
v -1.000000 -0.725129 -0.333333
v -1.000000 -0.725129 -1.000000
v -1.000000 -0.725129 0.518765
v -1.000000 -0.725129 0.333333
v -1.000000 -0.725129 -0.169690
v -0.333333 -0.725129 -1.000000
v -0.333333 -0.725129 0.560814
v -0.333333 -0.725129 -0.333333
v -0.333333 -0.725129 0.333333
v -0.109439 -0.725129 -0.333333
v 0.170490 -0.725129 -0.333333
v -0.059731 -0.725129 -1.000000
v 0.116111 -0.725129 -1.000000
v -1.000000 -0.725129 0.150564
v -0.333333 -0.614857 1.000000
v -1.000000 -0.614857 1.000000
v -1.000000 -0.614857 -0.333333
v -1.000000 -0.614857 -1.000000
v -1.000000 -0.614857 0.518765
v -1.000000 -0.614857 0.333333
v -1.000000 -0.614857 -0.169690
v -0.333333 -0.614857 -1.000000
v -0.333333 -0.614857 0.560814
v -0.333333 -0.614857 -0.333333
v -0.333333 -0.614857 0.333333
v -0.109439 -0.614857 -0.333333
v -0.059731 -0.614857 -1.000000
v -1.000000 -0.614857 0.150564
v -0.333333 -0.519863 1.000000
v -1.000000 -0.519863 1.000000
v -1.000000 -0.519863 -0.333333
v -1.000000 -0.519863 -1.000000
v -1.000000 -0.519863 0.518765
v -1.000000 -0.519863 0.333333
v -1.000000 -0.519863 -0.169690
v -0.333333 -0.519863 -1.000000
v -0.333333 -0.519863 0.560814
v -0.333333 -0.519863 -0.333333
v -0.333333 -0.519863 0.333333
v -1.000000 -0.519863 0.150564
v -0.333333 -0.395253 1.000000
v -1.000000 -0.395253 1.000000
v -1.000000 -0.395253 0.518765
v -1.000000 -0.395253 0.333333
v -1.000000 -0.395253 -0.169690
v -1.000000 -0.395253 -0.333333
v -0.333333 -0.395253 0.560814
v -0.333333 -0.395253 0.333333
v -0.333333 -0.395253 -0.333333
v -1.000000 -0.395253 0.150564
v -0.333333 -0.395253 -0.104233
v -0.333333 -0.275855 1.000000
v -1.000000 -0.275855 1.000000
v -1.000000 -0.275855 0.518765
v -1.000000 -0.275855 0.333333
v -0.333333 -0.275855 0.560814
v -0.333333 -0.275855 0.154586
v -0.333333 -0.275855 0.333333
v -1.000000 -0.275855 0.150564
v -1.000000 -0.275855 -0.169690
v -0.333333 -0.275855 -0.104233
v -0.333333 -0.130463 1.000000
v -1.000000 -0.130463 1.000000
v -1.000000 -0.130463 0.518765
v -1.000000 -0.130463 0.333333
v -0.333333 -0.130463 0.560814
v -0.333333 -0.130463 0.154586
v -0.333333 -0.130463 0.333333
v -1.000000 -0.130463 0.150564
v -0.333333 -0.016362 1.000000
v -1.000000 -0.016362 1.000000
v -1.000000 -0.016362 0.518765
v -1.000000 -0.016362 0.333333
v -0.333333 -0.016362 0.560814
v -0.333333 -0.016362 0.333333
v -0.333333 0.088422 1.000000
v -1.000000 0.088422 1.000000
v -0.333333 0.088422 0.560814
v -1.000000 0.088422 0.518765
v 0.887903 -0.891222 0.333333
v 0.887344 -0.891222 -1.000000
v 0.887624 -0.891222 -0.333333
v 0.888182 -0.891222 1.000000
v 1.000000 0.272857 0.333333
v 1.000000 0.272857 1.000000
v 0.887344 0.272857 -1.000000
v 1.000000 0.272857 -1.000000
v 1.000000 0.272857 -0.333333
v 0.887624 0.272857 -0.333333
v 0.887903 0.272857 0.333333
v 0.888182 0.272857 1.000000
v 0.887903 -0.341782 0.333333
v 1.000000 -0.344328 0.333333
v 1.000000 -0.345735 -0.333333
v 0.887624 -0.348288 -0.333333
v 0.887903 0.272857 0.214041
v 1.000000 0.272857 0.214041
v 1.000000 -0.190520 0.214041
v 0.887903 -0.187974 0.214041
v 0.887903 0.272857 0.098694
v 1.000000 0.272857 0.098694
v 1.000000 -0.116673 0.098694
v 0.887903 -0.114128 0.098694
v 0.887903 0.272857 -0.005581
v 1.000000 0.272857 -0.005581
v 1.000000 -0.116673 -0.005581
v 0.887903 -0.114128 -0.005581
v 0.887903 0.272857 -0.113303
v 1.000000 0.272857 -0.113303
v 1.000000 -0.116673 -0.113303
v 0.887903 -0.114128 -0.113303
v 0.887903 0.272857 -0.212953
v 1.000000 0.272857 -0.212953
v 1.000000 -0.190520 -0.212953
v 0.887903 -0.187974 -0.212953
v -0.333333 -0.575282 0.154586
vt -0.076219 0.257012
vt 0.257114 0.257012
vt 0.257114 0.294623
vt -0.076219 0.294623
vt 0.923781 0.202622
vt 0.923781 0.257012
vt 0.867872 0.257012
vt 0.590447 0.257012
vt -0.076219 0.202622
vt -0.025657 0.202622
vt -0.025657 0.257012
vt 0.307676 0.257012
vt 0.641009 0.257012
vt 0.974343 0.257012
vt 0.974343 0.202622
vt -0.076219 0.974343
vt 0.923781 0.974343
vt 0.923781 -0.025657
vt -0.076219 -0.025657
vt 0.974343 0.202622
vt 0.974343 0.257012
vt 0.641009 0.257012
vt 0.307676 0.257012
vt -0.025657 0.257012
vt -0.025657 0.202622
vt -0.076219 0.202622
vt -0.076219 0.257012
vt 0.257114 0.257012
vt 0.590447 0.257012
vt 0.867453 0.257012
vt 0.923781 0.257012
vt 0.923781 0.202622
vt 0.307676 0.530459
vt 0.307676 0.839051
vt -0.025657 0.839051
vt 0.590447 0.307676
vt 0.257114 0.307676
vt 0.257114 -0.025657
vt 0.590447 -0.025657
vt 0.923781 0.839051
vt 0.867872 0.839051
vt 0.923781 0.641009
vt 0.867593 0.641009
vt 0.867732 0.307676
vt 0.923781 0.307676
vt -0.025657 0.294623
vt 0.214960 0.294623
vt 0.307676 0.294623
vt 0.590447 0.641009
vt 0.257114 0.641009
vt 0.641009 0.294623
vt 0.974343 0.294623
vt 0.257114 0.294623
vt 0.393915 0.294623
vt 0.481836 0.294623
vt 0.590447 0.294623
vt 0.257114 0.340058
vt 0.257114 0.395194
vt 0.257114 0.442691
vt 0.257114 0.504996
vt 0.257114 0.564695
vt 0.257114 0.637391
vt 0.257114 0.694442
vt 0.257114 0.746833
vt -0.076219 0.746833
vt -0.076219 0.694442
vt -0.076219 0.637391
vt -0.076219 0.564695
vt -0.076219 0.504996
vt -0.076219 0.442691
vt -0.076219 0.395194
vt -0.076219 0.340058
vt 0.590447 0.974343
vt 0.481836 0.974343
vt 0.509026 0.641009
vt 0.590447 0.641009
vt -0.025657 0.257012
vt 0.307676 0.257012
vt 0.307676 0.294623
vt 0.193936 0.294623
vt -0.025657 0.294623
vt 0.399060 0.294623
vt 0.559188 0.294623
vt 0.641009 0.257012
vt 0.974343 0.257012
vt 0.974343 0.294623
vt 0.641009 0.294623
vt 0.257114 0.257012
vt 0.590447 0.257012
vt 0.590447 0.294623
vt 0.509026 0.294623
vt 0.369062 0.294623
vt 0.257114 0.294623
vt -0.076219 0.294623
vt 0.641009 0.257012
vt 0.641009 0.294623
vt 0.526459 0.294623
vt 0.397050 0.294623
vt -0.025657 0.340058
vt -0.025657 0.395194
vt -0.025657 0.442691
vt -0.025657 0.504996
vt -0.025657 0.564695
vt -0.025657 0.637391
vt -0.025657 0.694442
vt -0.025657 0.746833
vt 0.214960 0.746833
vt 0.214960 0.694442
vt 0.214960 0.637391
vt 0.214960 0.564695
vt 0.214960 0.504996
vt 0.214960 0.442691
vt 0.214960 0.395194
vt 0.214960 0.340058
vt 0.974343 0.257012
vt 0.641009 0.257012
vt 0.641009 0.528479
vt 0.641009 0.839051
vt 0.974343 0.839051
vt 0.641009 0.294623
vt 0.974343 0.294623
vt 0.974343 0.340058
vt 0.641009 0.340058
vt 0.867453 0.839051
vt 0.923781 0.839051
vt 0.509026 0.641009
vt 0.481836 0.974343
vt 0.393915 0.974343
vt 0.369062 0.641009
vt 0.867593 0.257012
vt 0.923781 0.257012
vt 0.923781 0.529755
vt 0.867593 0.528479
vt 0.307676 0.257012
vt -0.025657 0.257012
vt -0.025657 0.839051
vt 0.307676 0.839051
vt 0.307676 0.531731
vt 0.509026 0.340058
vt 0.369062 0.340058
vt 0.393915 0.340058
vt 0.481836 0.340058
vt 0.641009 0.395194
vt 0.974343 0.395194
vt 0.974343 0.442691
vt 0.641009 0.442691
vt 0.369062 0.641009
vt 0.393915 0.974343
vt 0.257114 0.974343
vt 0.257114 0.641009
vt 0.974343 0.839051
vt 0.641009 0.839051
vt 0.641009 0.529755
vt 0.641009 0.340058
vt 0.974343 0.340058
vt 0.974343 0.395194
vt 0.641009 0.395194
vt 0.923781 0.974343
vt 0.867453 0.974343
vt 0.867593 0.641009
vt 0.923781 0.641009
vt 0.257114 0.974343
vt -0.076219 0.974343
vt -0.076219 0.641009
vt 0.257114 0.641009
vt 0.641009 0.340058
vt 0.641009 0.395194
vt 0.641009 0.442691
vt 0.974343 0.442691
vt 0.974343 0.395194
vt 0.974343 0.340058
vt 0.923781 0.257012
vt 0.867732 0.257012
vt 0.867732 0.531731
vt 0.923781 0.530459
vt 0.257114 0.340058
vt 0.257114 0.395194
vt 0.393915 0.395194
vt 0.369062 0.395194
vt 0.257114 0.395194
vt 0.257114 0.340058
vt 0.257114 0.641009
vt -0.076219 0.641009
vt -0.076219 0.559188
vt 0.257114 0.526459
vt 0.257114 0.504996
vt -0.076219 0.504996
vt -0.076219 0.564695
vt 0.257114 0.564695
vt 0.257114 0.442691
vt -0.076219 0.442691
vt -0.076219 0.504996
vt 0.257114 0.504996
vt 0.257114 0.564695
vt -0.076219 0.564695
vt -0.076219 0.637391
vt 0.257114 0.637391
vt 0.257114 0.526459
vt -0.076219 0.559188
vt -0.076219 0.399060
vt 0.257114 0.397050
vt 0.867453 0.974343
vt 0.590447 0.974343
vt 0.559188 0.340058
vt 0.559188 0.395194
vt 0.559188 0.442691
vt 0.559188 0.504996
vt 0.641009 0.504996
vt 0.867872 -0.025657
vt 0.257114 0.397050
vt -0.076219 0.399060
vt -0.076219 0.307676
vt 0.257114 0.307676
vt 0.641009 0.340058
vt 0.641009 0.504996
vt 0.526459 0.504996
vt 0.399060 0.340058
vt 0.399060 0.395194
vt 0.399060 0.442691
vt 0.399060 0.504996
vt 0.399060 0.564695
vt 0.559188 0.564695
vt 0.257114 0.307676
vt -0.076219 0.307676
vt -0.076219 0.214960
vt 0.257114 0.193936
vt 0.257114 0.694442
vt -0.076219 0.694442
vt -0.076219 0.746833
vt 0.257114 0.746833
vt 0.397050 0.414982
vt 0.397050 0.564695
vt 0.397050 0.637391
vt 0.307676 0.637391
vt 0.307676 0.564695
vt 0.307676 0.504996
vt 0.307676 0.442691
vt 0.307676 0.395194
vt 0.307676 0.340058
vt 0.307676 0.340058
vt 0.307676 0.395194
vt 0.307676 0.442691
vt 0.307676 0.504996
vt 0.307676 0.564695
vt 0.307676 0.637391
vt 0.399060 0.637391
vt 0.257114 0.637391
vt -0.076219 0.637391
vt -0.076219 0.694442
vt 0.257114 0.694442
vt 0.257114 0.193936
vt -0.076219 0.214960
vt -0.076219 -0.025657
vt 0.257114 -0.025657
vt 0.307676 0.694442
vt 0.193936 0.694442
vt 0.193936 0.637391
vt 0.193936 0.564695
vt 0.193936 0.504996
vt 0.193936 0.442691
vt 0.193936 0.395194
vt 0.193936 0.340058
vt 0.923781 0.307676
vt 0.867732 0.307676
vt 0.867872 -0.025657
vt 0.923781 -0.025657
vt 0.307676 0.694442
vt 0.193936 0.746833
vt -0.025657 0.746833
vt -0.025657 0.694442
vt -0.025657 0.637391
vt -0.025657 0.564695
vt -0.025657 0.504996
vt -0.025657 0.442691
vt -0.025657 0.395194
vt -0.025657 0.340058
vt 0.867732 0.367322
vt 0.923781 0.367322
vt 0.923781 0.424996
vt 0.867732 0.424996
vt 0.367322 0.839051
vt 0.367322 0.608635
vt 0.867732 0.608635
vt 0.923781 0.607362
vt 0.367322 0.607362
vt 0.367322 0.839051
vt 0.923781 0.424996
vt 0.867732 0.424996
vt 0.867732 0.477133
vt 0.923781 0.477133
vt 0.923781 0.367322
vt 0.867732 0.367322
vt 0.424996 0.644286
vt 0.424996 0.839051
vt 0.424996 0.839051
vt 0.424996 0.645559
vt 0.477133 0.645559
vt 0.477133 0.839051
vt 0.530994 0.839051
vt 0.530994 0.645559
vt 0.477133 0.644286
vt 0.477133 0.839051
vt 0.923781 0.477133
vt 0.867732 0.477133
vt 0.923781 0.530994
vt 0.867732 0.530994
vt 0.867732 0.580819
vt 0.923781 0.580819
vt 0.923781 0.530994
vt 0.867732 0.530994
vt 0.530994 0.644286
vt 0.530994 0.839051
vt 0.580819 0.607362
vt 0.580819 0.839051
vt 0.580819 0.839051
vt 0.580819 0.608635
vt 0.923781 0.580819
vt 0.867732 0.580819
vt 0.867732 0.608635
vt 0.923781 0.607362
vt 0.526459 0.564695
vn 0.0000 0.0000 1.0000
vn -1.0000 -0.0000 0.0000
vn 0.0000 -1.0000 0.0000
vn 1.0000 -0.0000 0.0000
vn 0.0000 0.0000 -1.0000
vn 0.0000 1.0000 0.0000
vn -1.0000 0.0000 0.0004
vn 0.9967 0.0000 -0.0813
vn 0.9972 0.0000 0.0744
vn 0.0977 0.0000 -0.9952
vn 0.0060 0.0000 -1.0000
vn 0.0629 0.0000 -0.9980
vn -0.0139 -0.6128 -0.7901
vn -0.0227 -0.9997 0.0000
vn -0.0191 -0.8420 -0.5391
vn -0.0182 -0.8033 0.5953
vn -1.0000 0.0000 0.0023
vn 0.0000 -0.6066 0.7950
usemtl Material
s 2
f 7/1/1 10/2/1 21/3/1 22/4/1
f 4/5/1 3/6/1 125/7/1 9/8/1 10/2/1 7/1/1 8/9/1
f 8/10/2 7/11/2 13/12/2 14/13/2 5/14/2 6/15/2
f 6/16/3 2/17/3 4/18/3 8/19/3
f 2/20/4 1/21/4 11/22/4 12/23/4 3/24/4 4/25/4
f 6/26/5 5/27/5 15/28/5 16/29/5 123/30/5 1/31/5 2/32/5
f 3/24/4 12/23/4 135/33/4 126/34/4 127/35/4
f 18/36/6 20/37/6 10/38/6 9/39/6
f 125/7/1 3/6/1 127/40/1 133/41/1
f 11/42/6 124/43/6 122/44/6 12/45/6
f 13/12/2 7/11/2 22/46/2 40/47/2 25/48/2
f 17/49/6 19/50/6 20/37/6 18/36/6
f 5/14/2 14/13/2 23/51/2 24/52/2
f 16/29/5 15/28/5 26/53/5 34/54/5 32/55/5 27/56/5
f 22/4/1 21/3/1 41/57/1 57/58/1 71/59/1 83/60/1 94/61/1 104/62/1 112/63/1 118/64/1 119/65/1 113/66/1 105/67/1 95/68/1 84/69/1 72/70/1 58/71/1 42/72/1
f 27/73/6 32/74/6 31/75/6 28/76/6
f 10/77/4 20/78/4 29/79/4 39/80/4 21/81/4
f 14/13/2 13/12/2 25/48/2 38/82/2 35/83/2 23/51/2
f 17/84/4 16/85/4 27/86/4 28/87/4
f 19/88/1 17/89/1 28/90/1 31/91/1 33/92/1 30/93/1
f 15/28/5 5/27/5 24/94/5 26/53/5
f 20/78/4 19/95/4 30/96/4 36/97/4 37/98/4 29/79/4
f 40/47/2 22/46/2 42/99/2 58/100/2 72/101/2 84/102/2 95/103/2 105/104/2 113/105/2 119/106/2 121/107/2 114/108/2 106/109/2 96/110/2 85/111/2 75/112/2 61/113/2 45/114/2
f 123/115/7 124/116/7 137/117/7 131/118/7 128/119/7
f 31/120/8 32/121/8 55/122/8 53/123/8
f 1/31/5 123/30/5 128/124/5 129/125/5
f 53/126/6 55/127/6 54/128/6 52/129/6
f 124/130/1 11/131/1 136/132/1 137/133/1
f 122/134/7 125/135/7 133/136/7 132/137/7 134/138/7
f 33/92/1 31/91/1 53/139/1 52/140/1
f 32/55/5 34/54/5 54/141/5 55/142/5
f 66/143/4 64/144/4 78/145/4 80/146/4
f 68/147/6 69/148/6 64/149/6 66/150/6
f 11/22/4 1/21/4 129/151/4 130/152/4 136/153/4
f 52/154/9 54/155/9 69/156/9 68/157/9
f 129/158/6 128/159/6 131/160/6 130/161/6
f 78/162/6 74/163/6 73/164/6 80/165/6
f 24/52/2 23/51/2 43/166/2 59/167/2 73/168/2 74/169/2 60/170/2 44/171/2
f 12/172/5 122/173/5 134/174/5 135/175/5
f 34/54/5 26/53/5 48/176/5 64/177/5 69/178/5 54/141/5
f 30/93/1 33/92/1 52/140/1 68/179/1 66/180/1 50/181/1
f 91/182/6 88/183/6 87/184/6 93/185/6
f 93/186/10 87/187/10 102/188/10 103/189/10
f 80/190/5 73/191/5 88/192/5 91/193/5
f 99/194/11 101/195/11 111/196/11 109/197/11
f 103/198/6 102/199/6 101/200/6 99/201/6
f 124/43/6 123/202/6 16/203/6 17/49/6
f 122/44/6 124/43/6 17/49/6 18/36/6
f 23/51/2 35/83/2 47/204/2 63/205/2 77/206/2 87/207/2 88/208/2 73/168/2 59/167/2 43/166/2
f 125/209/6 122/44/6 18/36/6 9/39/6
f 109/210/6 111/211/6 107/212/6 110/213/6
f 36/97/4 30/96/4 50/214/4 66/143/4 80/146/4 91/215/4 93/216/4
f 35/83/2 38/82/2 56/217/2 70/218/2 82/219/2 92/220/2 101/221/2 102/222/2 87/207/2 77/206/2 63/205/2 47/204/2
f 117/223/6 115/224/6 114/225/6 116/226/6
f 116/227/12 114/228/12 121/229/12 120/230/12
f 29/79/4 37/98/4 158/231/4 99/232/4 109/233/4 110/234/4 100/235/4 90/236/4 81/237/4 67/238/4 51/239/4
f 38/82/2 25/48/2 46/240/2 62/241/2 76/242/2 86/243/2 97/244/2 107/245/2 111/246/2 101/221/2 92/220/2 82/219/2 70/218/2 56/217/2
f 110/247/5 107/248/5 115/249/5 117/250/5
f 120/251/6 121/252/6 119/253/6 118/254/6
f 39/80/4 29/79/4 51/239/4 67/238/4 81/237/4 90/236/4 100/235/4 110/234/4 117/255/4 116/256/4 108/257/4 98/258/4 89/259/4 79/260/4 65/261/4 49/262/4
f 126/263/6 132/264/6 133/265/6 127/266/6
f 25/48/2 40/47/2 45/114/2 61/113/2 75/112/2 85/111/2 96/110/2 106/109/2 114/108/2 115/267/2 107/245/2 97/244/2 86/243/2 76/242/2 62/241/2 46/240/2
f 21/81/4 39/80/4 49/262/4 65/261/4 79/260/4 89/259/4 98/258/4 108/257/4 116/256/4 120/268/4 118/269/4 112/270/4 104/271/4 94/272/4 83/273/4 71/274/4 57/275/4 41/276/4
f 74/163/5 78/162/5 26/53/5 24/94/5
f 138/277/6 139/278/6 143/279/6 142/280/6
f 134/138/2 132/137/2 138/281/2 141/282/2
f 135/175/13 134/174/13 141/283/13 140/284/13
f 126/34/4 135/33/4 140/285/4 139/286/4
f 132/264/6 126/263/6 139/278/6 138/277/6
f 144/287/14 145/288/14 149/289/14 148/290/14
f 140/291/15 141/292/15 145/288/15 144/287/15
f 139/286/4 140/285/4 144/293/4 143/294/4
f 141/282/2 138/281/2 142/295/2 145/296/2
f 149/297/2 146/298/2 150/299/2 153/300/2
f 143/294/4 144/293/4 148/301/4 147/302/4
f 145/296/2 142/295/2 146/298/2 149/297/2
f 142/280/6 143/279/6 147/303/6 146/304/6
f 152/305/16 153/306/16 157/307/16 156/308/16
f 146/304/6 147/303/6 151/309/6 150/310/6
f 148/290/14 149/289/14 153/306/14 152/305/14
f 147/302/4 148/301/4 152/311/4 151/312/4
f 151/312/4 152/311/4 156/313/4 155/314/4
f 153/300/2 150/299/2 154/315/2 157/316/2
f 150/310/6 151/309/6 155/317/6 154/318/6
f 154/318/6 155/317/6 130/161/6 131/160/6
f 155/314/4 156/313/4 136/153/4 130/152/4
f 157/316/17 154/315/17 131/118/17 137/117/17
f 157/319/18 137/133/18 136/132/18 156/320/18
f 158/231/4 93/216/4 103/321/4 99/232/4
f 158/231/4 37/98/4 36/97/4 93/216/4
